<?xml version="1.0" standalone="no"?><!DOCTYPE svg PUBLIC "-//W3C//DTD SVG 1.1//EN" "http://www.w3.org/Graphics/SVG/1.1/DTD/svg11.dtd"><svg t="1563332733175" class="icon" viewBox="0 0 1024 1024" version="1.1" xmlns="http://www.w3.org/2000/svg" p-id="7803" xmlns:xlink="http://www.w3.org/1999/xlink" width="200" height="200"><defs><style type="text/css"></style></defs><path d="M1020.16 440.448c-3.968-22.4-25.408-45.312-47.808-50.24l-16.704-3.84a166.4 166.4 0 0 1-96-76.352 167.68 167.68 0 0 1-17.664-122.624l5.248-15.744c6.72-21.824-1.984-51.968-19.456-66.88 0 0-15.68-13.312-59.712-38.912-44.224-25.472-63.168-32.576-63.168-32.576-21.504-7.936-51.584-0.32-67.328 16.448l-11.584 12.48a163.584 163.584 0 0 1-113.728 45.376A164.48 164.48 0 0 1 397.952 61.824l-11.136-12.16C371.328 32.896 341.056 25.472 319.488 33.28c0 0-19.2 7.104-63.36 32.576-44.224 25.792-59.776 39.104-59.776 39.104-17.408 14.784-26.112 44.608-19.392 66.688l4.8 15.936a168.256 168.256 0 0 1-17.664 122.432A164.736 164.736 0 0 1 67.52 386.56l-16.064 3.648c-22.016 5.12-43.712 27.712-47.808 50.24C3.648 440.448 0 460.672 0 512s3.648 71.488 3.648 71.488c3.968 22.656 25.408 45.312 47.808 50.24l15.68 3.648c40.96 12.096 75.648 39.616 96.704 76.8 22.016 38.592 27.328 82.496 17.664 122.624l-4.544 15.552c-6.72 21.824 1.984 51.968 19.456 66.88 0 0 15.68 13.312 59.712 38.912 44.224 25.6 63.232 32.576 63.232 32.576 21.44 7.936 51.584 0.32 67.328-16.448l11.008-11.904c64-61.248 164.864-61.184 228.8 0.128l11.008 11.968c15.488 16.704 45.76 24.192 67.328 16.384 0 0 19.2-7.104 63.424-32.576 44.16-25.6 59.648-38.912 59.648-38.912 17.472-14.72 26.176-44.8 19.456-66.88l-4.8-16.128a166.72 166.72 0 0 1 17.664-121.984 166.272 166.272 0 0 1 96.704-76.8l15.744-3.648c22.016-5.12 43.712-27.712 47.808-50.24 0 0 3.648-20.224 3.648-71.488-0.384-51.392-3.968-71.744-3.968-71.744z m-507.968 277.056c-112.64 0-204.16-91.904-204.16-205.568a204.48 204.48 0 0 1 204.16-205.184c112.576 0 204.096 91.904 204.096 205.504-0.192 113.344-91.52 205.184-204.096 205.248z m0 0" p-id="7804"></path></svg>