<?xml version="1.0" standalone="no"?><!DOCTYPE svg PUBLIC "-//W3C//DTD SVG 1.1//EN" "http://www.w3.org/Graphics/SVG/1.1/DTD/svg11.dtd"><svg t="1563336383692" class="icon" viewBox="0 0 1024 1024" version="1.1" xmlns="http://www.w3.org/2000/svg" p-id="12773" xmlns:xlink="http://www.w3.org/1999/xlink" width="200" height="200"><defs><style type="text/css"></style></defs><path d="M918 620.3l-42.4-19.6-334 154.8c-9.3 4.3-19.3 6.5-29.6 6.5s-20.2-2.2-29.6-6.5l-334-154.8-42.4 19.6c-32.6 15.1-32.6 61.5 0 76.6l388.3 179.9c11.3 5.2 24.2 5.2 35.5 0L918 696.9c32.7-15.1 32.7-61.5 0-76.6z" p-id="12774"></path><path d="M918 476.6l-48.6-22.5L541.6 606c-9.3 4.3-19.3 6.5-29.6 6.5s-20.2-2.2-29.6-6.5L154.6 454.1 106 476.6c-32.6 15.1-32.6 61.5 0 76.6l388.3 179.9c11.3 5.2 24.2 5.2 35.5 0L918 553.2c32.7-15.1 32.7-61.5 0-76.6z" p-id="12775"></path><path d="M494.2 583.6L106 403.7c-32.6-15.1-32.6-61.5 0-76.6l388.3-179.9c11.3-5.2 24.2-5.2 35.5 0L918 327.1c32.6 15.1 32.6 61.5 0 76.6L529.8 583.6a42.57 42.57 0 0 1-35.6 0z" p-id="12776"></path></svg>