<?xml version="1.0" standalone="no"?><!DOCTYPE svg PUBLIC "-//W3C//DTD SVG 1.1//EN" "http://www.w3.org/Graphics/SVG/1.1/DTD/svg11.dtd"><svg t="1564628386910" class="icon" viewBox="0 0 1024 1024" version="1.1" xmlns="http://www.w3.org/2000/svg" p-id="12940" xmlns:xlink="http://www.w3.org/1999/xlink" width="200" height="200"><defs><style type="text/css"></style></defs><path d="M70.641042 290.607667c0-15.342721 12.274178-28.639748 28.639748-28.639748l377.430952 0 0 184.112659-377.430952 0c-15.342721 0-28.639748-12.274178-28.639748-28.639748L70.641042 290.607667zM181.108637 110.586399c1.022848-8.182785 4.091393-17.388417 21.47981-29.662595 16.36557-11.251329 38.868229-12.274178 66.485128-6.137088 53.188101 13.297026 118.650381 58.302342 168.769938 116.604684l-214.798103 0C209.748384 179.117222 178.040093 139.226147 181.108637 110.586399L181.108637 110.586399zM476.71174 515.634251l0 437.77899-314.014369 0c-15.342721 0-28.639748-12.274178-28.639748-28.639748l0-381.522344c0-15.342721 12.274178-28.639748 28.639748-28.639748L476.71174 514.611402zM952.33611 290.607667l0 126.833166c0 15.342721-12.274178 28.639748-28.639748 28.639748l-377.430952 0 0-184.112659 377.430952 0C939.039086 261.967919 952.33611 274.242097 952.33611 290.607667L952.33611 290.607667zM585.133639 191.3914c50.119557-57.279494 115.581836-103.307658 168.769938-116.604684 27.616899-7.159936 50.119557-5.11424 66.485128 6.137088 17.388417 11.251329 20.456963 21.47981 21.47981 29.662595 3.068544 28.639748-27.616899 66.485128-41.936772 80.805001L585.133639 191.3914zM860.279781 953.41324l-314.014369 0 0-437.77899 314.014369 0c15.342721 0 28.639748 12.274178 28.639748 28.639748l0 381.522344C888.919528 941.139063 875.622502 953.41324 860.279781 953.41324L860.279781 953.41324zM923.696364 191.3914l-35.799684 0c18.411266-30.685444 26.594051-60.348038 23.525506-87.964937-2.045696-22.502658-13.297026-55.233798-52.165253-81.827849-32.731139-21.47981-75.69076-26.594051-121.718924-15.342721-75.69076 19.434114-165.701393 84.896394-225.026584 164.678546-59.325189-79.782152-149.335824-145.244432-225.026584-164.678546-47.051014-12.274178-88.987786-6.137088-121.718924 15.342721-39.891077 25.571202-50.119557 58.302342-52.165253 81.827849-2.045696 27.616899 5.11424 56.256646 23.525506 87.964937l-35.799684 0c-54.21095 0-98.193418 43.982468-98.193418 98.193418l0 126.833166c0 42.959621 28.639748 80.805001 69.553671 94.102025-4.091393 11.251329-6.137088 21.47981-6.137088 33.753987l0 381.522344c0 54.21095 43.982468 98.193418 98.193418 98.193418l697.582409 0c54.21095 0 98.193418-43.982468 98.193418-98.193418l0-381.522344c0-11.251329-2.045696-22.502658-6.137088-33.753987 40.913924-13.297026 69.553671-51.142405 69.553671-94.102025l0-126.833166C1021.889782 236.396717 977.907313 191.3914 923.696364 191.3914L923.696364 191.3914z" p-id="12941" fill="#bfcbd9"></path></svg>