<?xml version="1.0" standalone="no"?><!DOCTYPE svg PUBLIC "-//W3C//DTD SVG 1.1//EN" "http://www.w3.org/Graphics/SVG/1.1/DTD/svg11.dtd"><svg t="1563330961287" class="icon" viewBox="0 0 1024 1024" version="1.1" xmlns="http://www.w3.org/2000/svg" p-id="3087" xmlns:xlink="http://www.w3.org/1999/xlink" width="200" height="200"><defs><style type="text/css"></style></defs><path d="M705.1008 550.23616c154.56768 29.952 267.04896 164.04992 269.63456 321.46432h-124.18048a343.99232 343.99232 0 0 0-246.17984-238.53568c-17.32608 0 2.83648-25.66656 0-47.21664 72.69888-52.01408 82.52416-245.07904 71.42912-279.63904-41.94816-130.65728-90.96192-201.4976-213.82144-205.42976A186.66496 186.66496 0 0 1 593.92 49.21856c123.20768 0 200.64256 102.97856 200.64256 227.62496 0 93.84448-34.21184 195.14368-114.76992 229.18656a43.6736 43.6736 0 0 0 25.30816 44.20608z m-74.25536-170.76736c0 93.8496-34.21696 195.1488-114.7648 229.19168a43.8272 43.8272 0 0 0 25.66144 44.38528c154.57792 29.97248 267.04384 164.08064 269.62944 321.52064H49.10592c0-248.48384 245.23776-321.52064 271.5904-321.52064a45.84448 45.84448 0 0 0 23.52128-44.55936c-80.32768-34.09408-114.36032-135.28064-114.36032-229.01248 0-124.58496 77.44-227.56864 200.64256-227.56864s200.3456 102.97856 200.3456 227.56352z m0 0" p-id="3088" fill="#1296db"></path></svg>