<?xml version="1.0" standalone="no"?><!DOCTYPE svg PUBLIC "-//W3C//DTD SVG 1.1//EN" "http://www.w3.org/Graphics/SVG/1.1/DTD/svg11.dtd"><svg t="1563330987390" class="icon" viewBox="0 0 1260 1024" version="1.1" xmlns="http://www.w3.org/2000/svg" p-id="3405" xmlns:xlink="http://www.w3.org/1999/xlink" width="246.09375" height="200"><defs><style type="text/css"></style></defs><path d="M630.263154 787.615693A157.493539 157.493539 0 1 1 787.756692 630.121154a157.565538 157.565538 0 0 1-157.493538 157.493539z m0-393.806847a236.312308 236.312308 0 1 0 236.312307 236.313308 236.312308 236.312308 0 0 0-236.312307-236.313308z m452.505674 11.970965a724.152878 724.152878 0 0 1 177.757479 224.342343C1142.549653 863.910469 904.795349 1024 630.263154 1024S118.047654 863.910469 0 630.121154a721.701886 721.701886 0 0 1 177.757479-224.341343L89.419738 265.232223c-21.633937-34.541899-8.869974-78.889769 28.844916-98.86571s85.885748-8.148976 107.591684 26.464922l79.323768 125.908631a696.894958 696.894958 0 0 1 246.624277-76.727775V78.749769a78.746769 78.746769 0 0 1 157.493539 0v163.190522a696.894958 696.894958 0 0 1 246.625277 76.727775l79.323768-125.908631c21.632937-34.613899 70.020795-46.511864 107.591685-26.464922s50.478852 64.251812 28.844915 98.86571l-88.842739 140.619588z" p-id="3406" fill="#1296db"></path></svg>